<svg viewBox="0 0 576 512" xmlns="http://www.w3.org/2000/svg"><path fill="#1c4b88" d="m144.3 32.04c-37.4-.75-80.6 9.4-125.7 29.25-11.42 5.026-18.6 16.67-18.6 29.15v357.6c0 11.55 11.99 19.55 22.45 14.65 126.3-59.14 219.8 11 223.8 14.01 2.85 2.2 6.25 3.3 9.75 3.3 12.4 0 16-11.38 16-15.98v-383.98c0-5.203-2.531-10.08-6.781-13.08-1.919-1.38-48.519-33.61-120.919-34.92zm413.1 29.25c-45.11-19.79-88.48-29.61-125.7-29.26-72.44 1.312-118.1 33.55-120.9 34.92-4.3 3.01-6.8 7.88-6.8 13.09v383.1c0 5.26 3.5 16.86 16 16.86 3.484 0 6.938-1.125 9.781-3.328 3.925-3.018 97.44-73.16 223.8-14 10.46 4.896 22.45-3.105 22.45-14.65l.0001-357.6c-.9311-12.452-7.2311-24.112-18.6311-29.132z"/></svg>